<svg width="382" height="382" viewBox="0 0 382 382" fill="none" xmlns="http://www.w3.org/2000/svg">
<path d="M303.614 355.566C303.614 367.556 303.614 373.551 307.339 377.276C311.063 381.001 317.059 381.001 329.049 381.001H355.565C367.555 381.001 373.55 381.001 377.275 377.276C381 373.551 381 367.556 381 355.566V177.742C381 165.752 381 159.757 377.275 156.032C373.55 152.307 367.555 152.307 355.565 152.307H329.049C317.058 152.307 311.063 152.307 307.339 148.582C303.614 144.858 303.614 138.863 303.614 126.873V101.511C303.614 89.5208 303.614 83.5258 299.889 79.801C296.164 76.0762 290.169 76.0762 278.179 76.0762H255.127C243.137 76.0762 237.142 76.0762 233.417 79.801C229.693 83.5258 229.693 89.5208 229.693 101.511V126.873C229.693 138.863 229.693 144.858 225.968 148.582C222.243 152.307 216.248 152.307 204.258 152.307H177.741C165.751 152.307 159.756 152.307 156.031 148.582C152.307 144.858 152.307 138.863 152.307 126.873V101.511C152.307 89.5208 152.307 83.5258 148.582 79.801C144.857 76.0762 138.862 76.0762 126.872 76.0762H103.821C91.8308 76.0762 85.8358 76.0762 82.111 72.3513C78.3862 68.6265 78.3862 62.6315 78.3862 50.6414V26.4348C78.3862 14.4447 78.3862 8.44969 74.6613 4.72486C70.9365 1.00003 64.9415 1.00003 52.9515 1.00003H26.4347C14.4447 1.00003 8.44966 1.00003 4.72483 4.72486C1 8.44969 1 14.4447 1 26.4347V355.566C1 367.556 1 373.551 4.72483 377.276C8.44966 381.001 14.4447 381.001 26.4347 381.001H52.9507C64.9408 381.001 70.9358 381.001 74.6606 377.276C78.3854 373.551 78.3854 367.556 78.3854 355.566V178.897C78.3854 166.907 78.3854 160.912 82.1103 157.187C85.8351 153.462 91.8301 153.462 103.82 153.462H126.872C138.862 153.462 144.857 153.462 148.582 157.187C152.307 160.912 152.307 166.907 152.307 178.897V204.259C152.307 216.249 152.307 222.244 156.031 225.969C159.756 229.693 165.751 229.693 177.741 229.693H204.258C216.248 229.693 222.243 229.693 225.968 225.969C229.693 222.244 229.693 216.249 229.693 204.259V178.897C229.693 166.907 229.693 160.912 233.417 157.187C237.142 153.462 243.137 153.462 255.127 153.462H278.179C290.169 153.462 296.164 153.462 299.889 157.187C303.614 160.912 303.614 166.907 303.614 178.897V355.566Z" fill="white" stroke="white" stroke-width="0.52989"/>
</svg>
